<?xml version="1.0" encoding="UTF-8"?>
<svg xmlns="http://www.w3.org/2000/svg" xmlns:xlink="http://www.w3.org/1999/xlink" width="32px" height="32px" viewBox="0 0 32 32" version="1.1">
<g id="surface1">
<path style=" stroke:none;fill-rule:nonzero;fill:rgb(100%,100%,100%);fill-opacity:1;" d="M 11.601562 7.101562 C 9.601562 8.699219 9 10 9 13 C 9 15.398438 8.5 17 7.5 17.398438 C 4.898438 18.300781 5.699219 21.898438 8.601562 22.601562 C 10.101562 23 12.101562 24.101562 13.101562 25.101562 C 15.5 27.5 16.5 27.5 18.898438 25.101562 C 19.898438 24.101562 21.898438 23 23.398438 22.601562 C 26.300781 21.898438 27.101562 18.300781 24.5 17.398438 C 23.5 17 23 15.398438 23 13 C 23 10 22.398438 8.699219 20.398438 7.101562 C 18.898438 5.898438 17 5 16 5 C 15 5 13.101562 5.898438 11.601562 7.101562 Z M 19.398438 8.601562 C 20.300781 9.398438 21 11.601562 21 13.398438 C 21 15.300781 21.699219 17.300781 22.5 18 C 25.300781 20.398438 24 21 16 21 C 8 21 6.699219 20.398438 9.5 18 C 10.300781 17.300781 11 15.300781 11 13.398438 C 11 7.898438 15.898438 5 19.398438 8.601562 Z M 17.199219 24.199219 C 16.300781 25.101562 15.699219 25.101562 14.800781 24.199219 C 13.898438 23.300781 14.101562 23 16 23 C 17.898438 23 18.101562 23.300781 17.199219 24.199219 Z M 17.199219 24.199219 "/>
</g>
</svg>
